<svg width="356" height="180" viewBox="0 0 356 180" fill="none" xmlns="http://www.w3.org/2000/svg">
<rect x="10" y="10" width="336" height="160" fill="#F0F0F0" stroke="#5092CE" stroke-width="4"/>
<rect x="2" y="2" width="352" height="176" stroke="#5092CE" stroke-width="4"/>
<path d="M100.781 62.6V85H97.805V65.416H87.501V85H84.525V62.6H100.781ZM118.804 82.984C117.161 84.6053 115.166 85.416 112.82 85.416C110.473 85.416 108.478 84.6053 106.836 82.984C105.214 81.3627 104.404 79.368 104.404 77C104.404 74.632 105.214 72.6373 106.836 71.016C108.478 69.3947 110.473 68.584 112.82 68.584C115.166 68.584 117.161 69.3947 118.804 71.016C120.446 72.6373 121.267 74.632 121.267 77C121.267 79.368 120.446 81.3627 118.804 82.984ZM112.82 82.696C114.42 82.696 115.764 82.152 116.852 81.064C117.94 79.976 118.484 78.6213 118.484 77C118.484 75.3787 117.94 74.024 116.852 72.936C115.764 71.848 114.42 71.304 112.82 71.304C111.241 71.304 109.908 71.848 108.82 72.936C107.732 74.024 107.188 75.3787 107.188 77C107.188 78.6213 107.732 79.976 108.82 81.064C109.908 82.152 111.241 82.696 112.82 82.696ZM142.948 85H139.684L133.7 77.416V85H130.948V77.416L124.964 85H121.732L128.42 76.744L122.052 69H125.284L130.948 76.072V69H133.7V76.072L139.364 69H142.628L136.228 76.744L142.948 85ZM157.579 69H160.363V85H157.579V82.248C156.192 84.36 154.176 85.416 151.531 85.416C149.291 85.416 147.381 84.6053 145.803 82.984C144.224 81.3413 143.435 79.3467 143.435 77C143.435 74.6533 144.224 72.6693 145.803 71.048C147.381 69.4053 149.291 68.584 151.531 68.584C154.176 68.584 156.192 69.64 157.579 71.752V69ZM151.883 82.728C153.504 82.728 154.859 82.184 155.947 81.096C157.035 79.9867 157.579 78.6213 157.579 77C157.579 75.3787 157.035 74.024 155.947 72.936C154.859 71.8267 153.504 71.272 151.883 71.272C150.283 71.272 148.939 71.8267 147.851 72.936C146.763 74.024 146.219 75.3787 146.219 77C146.219 78.6213 146.763 79.9867 147.851 81.096C148.939 82.184 150.283 82.728 151.883 82.728ZM177.925 69V85H175.141V71.688H168.837V78.216C168.837 80.84 168.303 82.6747 167.237 83.72C166.191 84.744 164.709 85.1707 162.789 85V82.376C163.877 82.5253 164.687 82.2907 165.221 81.672C165.775 81.032 166.053 79.8587 166.053 78.152V69H177.925ZM193.311 69H196.287L189.759 85.992C189.077 87.8053 188.117 89.1813 186.879 90.12C185.642 91.08 184.234 91.5067 182.655 91.4V88.808C184.618 88.9573 186.058 87.8907 186.975 85.608L187.231 85.032L180.287 69H183.231L188.703 81.544L193.311 69ZM201.236 66.6V64.168H209.876V66.6H201.236ZM210.228 69H212.468V85H209.716V73.768L200.852 85H198.612V69H201.364V80.232L210.228 69ZM224.226 85.416C221.815 85.416 219.81 84.616 218.21 83.016C216.61 81.3947 215.81 79.3893 215.81 77C215.81 74.6107 216.61 72.616 218.21 71.016C219.81 69.3947 221.815 68.584 224.226 68.584C225.804 68.584 227.223 68.968 228.482 69.736C229.74 70.4827 230.679 71.496 231.298 72.776L228.962 74.12C228.556 73.2667 227.927 72.584 227.074 72.072C226.242 71.56 225.292 71.304 224.226 71.304C222.626 71.304 221.282 71.848 220.194 72.936C219.127 74.024 218.594 75.3787 218.594 77C218.594 78.6 219.127 79.944 220.194 81.032C221.282 82.12 222.626 82.664 224.226 82.664C225.292 82.664 226.252 82.4187 227.106 81.928C227.959 81.416 228.61 80.7333 229.058 79.88L231.426 81.256C230.743 82.5147 229.762 83.528 228.482 84.296C227.202 85.0427 225.783 85.416 224.226 85.416ZM245.829 69V71.688H240.389V85H237.605V71.688H232.133V69H245.829ZM260.891 69H263.675V85H260.891V82.248C259.505 84.36 257.489 85.416 254.843 85.416C252.603 85.416 250.694 84.6053 249.115 82.984C247.537 81.3413 246.747 79.3467 246.747 77C246.747 74.6533 247.537 72.6693 249.115 71.048C250.694 69.4053 252.603 68.584 254.843 68.584C257.489 68.584 259.505 69.64 260.891 71.752V69ZM255.195 82.728C256.817 82.728 258.171 82.184 259.259 81.096C260.347 79.9867 260.891 78.6213 260.891 77C260.891 75.3787 260.347 74.024 259.259 72.936C258.171 71.8267 256.817 71.272 255.195 71.272C253.595 71.272 252.251 71.8267 251.163 72.936C250.075 74.024 249.531 75.3787 249.531 77C249.531 78.6213 250.075 79.9867 251.163 81.096C252.251 82.184 253.595 82.728 255.195 82.728ZM272.053 81.704L269.973 89.48H267.573L268.853 81.704H272.053ZM44.3743 107V123H41.5903V109.656H33.3023V123H30.5182V107H44.3743ZM50.564 116.28C50.8413 117.709 51.492 118.819 52.516 119.608C53.5613 120.397 54.8413 120.792 56.356 120.792C58.468 120.792 60.004 120.013 60.964 118.456L63.332 119.8C61.7747 122.211 59.428 123.416 56.292 123.416C53.7533 123.416 51.684 122.627 50.084 121.048C48.5053 119.448 47.716 117.432 47.716 115C47.716 112.589 48.4947 110.584 50.052 108.984C51.6093 107.384 53.6253 106.584 56.1 106.584C58.4467 106.584 60.356 107.416 61.828 109.08C63.3213 110.723 64.068 112.707 64.068 115.032C64.068 115.437 64.036 115.853 63.972 116.28H50.564ZM56.1 109.208C54.6067 109.208 53.3693 109.635 52.388 110.488C51.4067 111.32 50.7987 112.44 50.564 113.848H61.252C61.0173 112.333 60.42 111.181 59.46 110.392C58.5 109.603 57.38 109.208 56.1 109.208ZM76.1003 106.584C78.3403 106.584 80.2496 107.405 81.8283 109.048C83.4069 110.669 84.1963 112.653 84.1963 115C84.1963 117.347 83.4069 119.341 81.8283 120.984C80.2496 122.605 78.3403 123.416 76.1003 123.416C73.4549 123.416 71.4389 122.36 70.0523 120.248V129.4H67.2682V107H70.0523V109.752C71.4389 107.64 73.4549 106.584 76.1003 106.584ZM75.7483 120.728C77.3483 120.728 78.6923 120.184 79.7803 119.096C80.8683 117.987 81.4123 116.621 81.4123 115C81.4123 113.379 80.8683 112.024 79.7803 110.936C78.6923 109.827 77.3483 109.272 75.7483 109.272C74.1269 109.272 72.7723 109.827 71.6843 110.936C70.5963 112.024 70.0523 113.379 70.0523 115C70.0523 116.621 70.5963 117.987 71.6843 119.096C72.7723 120.184 74.1269 120.728 75.7483 120.728ZM89.4703 116.28C89.7476 117.709 90.3983 118.819 91.4223 119.608C92.4676 120.397 93.7476 120.792 95.2623 120.792C97.3743 120.792 98.9103 120.013 99.8703 118.456L102.238 119.8C100.681 122.211 98.3343 123.416 95.1983 123.416C92.6596 123.416 90.5903 122.627 88.9903 121.048C87.4116 119.448 86.6223 117.432 86.6223 115C86.6223 112.589 87.4009 110.584 88.9583 108.984C90.5156 107.384 92.5316 106.584 95.0063 106.584C97.3529 106.584 99.2623 107.416 100.734 109.08C102.228 110.723 102.974 112.707 102.974 115.032C102.974 115.437 102.942 115.853 102.878 116.28H89.4703ZM95.0063 109.208C93.5129 109.208 92.2756 109.635 91.2943 110.488C90.3129 111.32 89.7049 112.44 89.4703 113.848H100.158C99.9236 112.333 99.3263 111.181 98.3663 110.392C97.4063 109.603 96.2863 109.208 95.0063 109.208ZM116.831 114.776C118.473 115.459 119.295 116.696 119.295 118.488C119.295 119.811 118.847 120.899 117.951 121.752C117.076 122.584 115.817 123 114.175 123H106.174V107H113.535C115.135 107 116.372 107.405 117.247 108.216C118.121 109.005 118.559 110.051 118.559 111.352C118.559 112.888 117.983 114.029 116.831 114.776ZM113.407 109.496H108.895V113.688H113.407C115.028 113.688 115.839 112.973 115.839 111.544C115.839 110.179 115.028 109.496 113.407 109.496ZM114.015 120.472C114.825 120.472 115.444 120.28 115.871 119.896C116.319 119.512 116.543 118.968 116.543 118.264C116.543 117.603 116.319 117.091 115.871 116.728C115.444 116.344 114.825 116.152 114.015 116.152H108.895V120.472H114.015ZM124.252 116.28C124.529 117.709 125.18 118.819 126.204 119.608C127.249 120.397 128.529 120.792 130.044 120.792C132.156 120.792 133.692 120.013 134.652 118.456L137.02 119.8C135.462 122.211 133.116 123.416 129.98 123.416C127.441 123.416 125.372 122.627 123.772 121.048C122.193 119.448 121.404 117.432 121.404 115C121.404 112.589 122.182 110.584 123.74 108.984C125.297 107.384 127.313 106.584 129.788 106.584C132.134 106.584 134.044 107.416 135.516 109.08C137.009 110.723 137.756 112.707 137.756 115.032C137.756 115.437 137.724 115.853 137.66 116.28H124.252ZM129.788 109.208C128.294 109.208 127.057 109.635 126.076 110.488C125.094 111.32 124.486 112.44 124.252 113.848H134.94C134.705 112.333 134.108 111.181 133.148 110.392C132.188 109.603 131.068 109.208 129.788 109.208ZM149.788 106.584C152.028 106.584 153.937 107.405 155.516 109.048C157.094 110.669 157.884 112.653 157.884 115C157.884 117.347 157.094 119.341 155.516 120.984C153.937 122.605 152.028 123.416 149.788 123.416C147.142 123.416 145.126 122.36 143.74 120.248V129.4H140.956V107H143.74V109.752C145.126 107.64 147.142 106.584 149.788 106.584ZM149.436 120.728C151.036 120.728 152.38 120.184 153.468 119.096C154.556 117.987 155.1 116.621 155.1 115C155.1 113.379 154.556 112.024 153.468 110.936C152.38 109.827 151.036 109.272 149.436 109.272C147.814 109.272 146.46 109.827 145.372 110.936C144.284 112.024 143.74 113.379 143.74 115C143.74 116.621 144.284 117.987 145.372 119.096C146.46 120.184 147.814 120.728 149.436 120.728ZM172.278 107H175.062V123H172.278V116.312H163.99V123H161.206V107H163.99V113.656H172.278V107ZM190.916 107H193.156V123H190.404V111.768L181.54 123H179.299V107H182.052V118.232L190.916 107ZM209.297 107V109.688H203.857V123H201.073V109.688H195.601V107H209.297ZM213.064 116.28C213.341 117.709 213.992 118.819 215.016 119.608C216.061 120.397 217.341 120.792 218.856 120.792C220.968 120.792 222.504 120.013 223.464 118.456L225.832 119.8C224.275 122.211 221.928 123.416 218.792 123.416C216.253 123.416 214.184 122.627 212.584 121.048C211.005 119.448 210.216 117.432 210.216 115C210.216 112.589 210.995 110.584 212.552 108.984C214.109 107.384 216.125 106.584 218.6 106.584C220.947 106.584 222.856 107.416 224.328 109.08C225.821 110.723 226.568 112.707 226.568 115.032C226.568 115.437 226.536 115.853 226.472 116.28H213.064ZM218.6 109.208C217.107 109.208 215.869 109.635 214.888 110.488C213.907 111.32 213.299 112.44 213.064 113.848H223.752C223.517 112.333 222.92 111.181 221.96 110.392C221 109.603 219.88 109.208 218.6 109.208ZM243.528 106.584C245.96 106.584 247.923 107.373 249.416 108.952C250.931 110.531 251.688 112.547 251.688 115C251.688 117.432 250.931 119.448 249.416 121.048C247.902 122.627 245.928 123.416 243.496 123.416C241.79 123.416 240.296 123.043 239.016 122.296C237.736 121.528 236.808 120.493 236.232 119.192L238.6 117.816C238.942 118.691 239.528 119.395 240.36 119.928C241.214 120.461 242.259 120.728 243.496 120.728C244.883 120.728 246.046 120.323 246.984 119.512C247.923 118.701 248.52 117.635 248.776 116.312H241.64V113.688H248.776C248.52 112.365 247.934 111.299 247.016 110.488C246.099 109.677 244.947 109.272 243.56 109.272C242.43 109.272 241.438 109.539 240.584 110.072C239.752 110.584 239.134 111.277 238.728 112.152L236.328 110.776C236.968 109.475 237.928 108.451 239.208 107.704C240.488 106.957 241.928 106.584 243.528 106.584ZM268.523 123H265.067L257.771 115.416V123H254.987V107H257.771V114.072L264.683 107H268.267L260.619 114.744L268.523 123ZM279.944 106.584C282.184 106.584 284.093 107.405 285.672 109.048C287.251 110.669 288.04 112.653 288.04 115C288.04 117.347 287.251 119.341 285.672 120.984C284.093 122.605 282.184 123.416 279.944 123.416C277.299 123.416 275.283 122.36 273.896 120.248V129.4H271.112V107H273.896V109.752C275.283 107.64 277.299 106.584 279.944 106.584ZM279.592 120.728C281.192 120.728 282.536 120.184 283.624 119.096C284.712 117.987 285.256 116.621 285.256 115C285.256 113.379 284.712 112.024 283.624 110.936C282.536 109.827 281.192 109.272 279.592 109.272C277.971 109.272 276.616 109.827 275.528 110.936C274.44 112.024 273.896 113.379 273.896 115C273.896 116.621 274.44 117.987 275.528 119.096C276.616 120.184 277.971 120.728 279.592 120.728ZM304.61 107H307.394V123H304.61V120.248C303.223 122.36 301.207 123.416 298.562 123.416C296.322 123.416 294.413 122.605 292.834 120.984C291.255 119.341 290.466 117.347 290.466 115C290.466 112.653 291.255 110.669 292.834 109.048C294.413 107.405 296.322 106.584 298.562 106.584C301.207 106.584 303.223 107.64 304.61 109.752V107ZM298.914 120.728C300.535 120.728 301.89 120.184 302.978 119.096C304.066 117.987 304.61 116.621 304.61 115C304.61 113.379 304.066 112.024 302.978 110.936C301.89 109.827 300.535 109.272 298.914 109.272C297.314 109.272 295.97 109.827 294.882 110.936C293.794 112.024 293.25 113.379 293.25 115C293.25 116.621 293.794 117.987 294.882 119.096C295.97 120.184 297.314 120.728 298.914 120.728ZM322.684 107H325.468V123H322.684V116.312H314.396V123H311.612V107H314.396V113.656H322.684V107Z" fill="#060602"/>
</svg>
