<svg width="324" height="126" viewBox="0 0 324 126" fill="none" xmlns="http://www.w3.org/2000/svg">
<rect x="1.69226" y="14.3837" width="319.837" height="109.151" stroke="#060602" stroke-width="3.38452"/>
<rect x="98.9972" y="1.69226" width="125.227" height="59.229" fill="#F0F0F0" stroke="#060602" stroke-width="3.38452"/>
<rect opacity="0.98" x="121.843" y="73.6132" width="79.5362" height="34.6913" stroke="#060602" stroke-width="3.38452"/>
<circle cx="159.072" cy="98.9967" r="5.07678" fill="#060602"/>
<circle cx="145.534" cy="98.9967" r="5.07678" fill="#060602"/>
<circle cx="131.996" cy="98.9967" r="5.07678" fill="#060602"/>
<circle cx="159.072" cy="82.9205" r="5.07678" fill="#060602"/>
<circle cx="145.534" cy="82.9205" r="5.07678" fill="#060602"/>
<circle cx="131.996" cy="82.9205" r="5.07678" fill="#060602"/>
<rect x="167.534" y="78.6895" width="27.9223" height="24.5378" fill="#060602"/>
<circle cx="299.53" cy="29.6147" r="5.07678" stroke="#060602" stroke-width="3.38452"/>
<circle cx="299.53" cy="46.5376" r="5.07678" stroke="#060602" stroke-width="3.38452"/>
<circle cx="272.454" cy="29.6149" r="5.07678" fill="#060602"/>
<circle cx="258.916" cy="29.6149" r="5.07678" fill="#060602"/>
<circle cx="245.378" cy="29.6149" r="5.07678" fill="#060602"/>
<circle cx="272.454" cy="46.5377" r="5.07678" fill="#060602"/>
<circle cx="258.916" cy="46.5377" r="5.07678" fill="#060602"/>
<circle cx="245.378" cy="46.5377" r="5.07678" fill="#060602"/>
</svg>
