<svg width="618" height="617" viewBox="0 0 618 617" fill="none" xmlns="http://www.w3.org/2000/svg">
<g filter="url(#filter0_f_188_2443)">
<path fill-rule="evenodd" clip-rule="evenodd" d="M179.079 109.972C108.305 140.956 70.7414 218.959 90.6443 293.61L158.703 548.882C174.208 607.039 254.28 613.228 278.539 558.146C288.807 534.831 311.981 519.877 337.456 520.127L362.946 520.377C394.415 520.686 422.665 501.134 433.461 471.573L435.797 465.175C446.353 436.271 475.537 418.547 506.052 422.507C571.245 430.967 607.158 349.114 556.789 306.87L343.03 127.595C300.131 91.6169 240.547 83.0614 189.258 105.515L179.079 109.972ZM337.537 385.258C352.293 374.705 350.196 346.49 332.853 322.236C315.509 297.983 289.487 286.876 274.73 297.428C259.973 307.981 262.071 336.197 279.414 360.45C296.758 384.703 322.78 395.81 337.537 385.258ZM315.076 200.652C325.629 215.409 322.221 235.926 307.464 246.479C292.707 257.031 272.19 253.623 261.638 238.866C251.086 224.11 254.494 203.593 269.25 193.04C284.007 182.488 304.524 185.896 315.076 200.652ZM210.138 310.668C224.894 300.115 228.303 279.598 217.75 264.842C207.198 250.085 186.681 246.677 171.924 257.229C157.168 267.782 153.759 288.299 164.312 303.055C174.864 317.812 195.381 321.22 210.138 310.668Z" fill="#F0F0F0" fill-opacity="0.5"/>
</g>
<defs>
<filter id="filter0_f_188_2443" x="68.6862" y="76.4906" width="528.485" height="536.34" filterUnits="userSpaceOnUse" color-interpolation-filters="sRGB">
<feFlood flood-opacity="0" result="BackgroundImageFix"/>
<feBlend mode="normal" in="SourceGraphic" in2="BackgroundImageFix" result="shape"/>
<feGaussianBlur stdDeviation="8.32745" result="effect1_foregroundBlur_188_2443"/>
</filter>
</defs>
</svg>
