<svg width="163" height="163" viewBox="0 0 163 163" fill="none" xmlns="http://www.w3.org/2000/svg">
<path d="M162.76 81.5321C162.76 126.393 126.393 162.761 81.532 162.761C36.6708 162.761 0.303589 126.393 0.303589 81.5321C0.303589 36.6709 36.6708 0.303711 81.532 0.303711C126.393 0.303711 162.76 36.6709 162.76 81.5321Z" fill="#F0F0F0"/>
<path fill-rule="evenodd" clip-rule="evenodd" d="M81.532 159.376C124.524 159.376 159.376 124.524 159.376 81.5321C159.376 38.5401 124.524 3.68823 81.532 3.68823C38.54 3.68823 3.68811 38.5401 3.68811 81.5321C3.68811 124.524 38.54 159.376 81.532 159.376ZM81.532 162.761C126.393 162.761 162.76 126.393 162.76 81.5321C162.76 36.6709 126.393 0.303711 81.532 0.303711C36.6708 0.303711 0.303589 36.6709 0.303589 81.5321C0.303589 126.393 36.6708 162.761 81.532 162.761Z" fill="#060602"/>
<path d="M144.019 81.4591C144.019 71.5864 141.683 61.8539 137.201 53.0573C132.719 44.2606 126.218 36.6497 118.231 30.8467L81.4591 81.4591H144.019Z" fill="#028642"/>
<path d="M50.179 135.637C58.729 140.574 68.3259 143.416 78.185 143.933C88.0442 144.45 97.8856 142.626 106.905 138.61L81.4592 81.4585L50.179 135.637Z" fill="#028642"/>
<path d="M50.1789 27.2806C41.6289 32.2169 34.3686 39.1067 28.9915 47.3866C23.6145 55.6666 20.2734 65.1015 19.2414 74.9201L81.4591 81.4594L50.1789 27.2806Z" fill="#028642"/>
<path d="M103.531 81.5326C103.531 93.6825 93.6817 103.532 81.5318 103.532C69.3819 103.532 59.5325 93.6825 59.5325 81.5326C59.5325 69.3827 69.3819 59.5332 81.5318 59.5332C93.6817 59.5332 103.531 69.3827 103.531 81.5326Z" fill="#F0F0F0"/>
<path fill-rule="evenodd" clip-rule="evenodd" d="M81.5318 99.3013C91.3452 99.3013 99.3005 91.346 99.3005 81.5326C99.3005 71.7192 91.3452 63.7638 81.5318 63.7638C71.7184 63.7638 63.7631 71.7192 63.7631 81.5326C63.7631 91.346 71.7184 99.3013 81.5318 99.3013ZM81.5318 103.532C93.6817 103.532 103.531 93.6825 103.531 81.5326C103.531 69.3827 93.6817 59.5332 81.5318 59.5332C69.3819 59.5332 59.5325 69.3827 59.5325 81.5326C59.5325 93.6825 69.3819 103.532 81.5318 103.532Z" fill="#060602"/>
<path d="M91.6854 81.5325C91.6854 87.1401 87.1395 91.686 81.5318 91.686C75.9242 91.686 71.3783 87.1401 71.3783 81.5325C71.3783 75.9248 75.9242 71.3789 81.5318 71.3789C87.1395 71.3789 91.6854 75.9248 91.6854 81.5325Z" fill="#060602"/>
</svg>
