<svg width="182" height="182" viewBox="0 0 182 182" fill="none" xmlns="http://www.w3.org/2000/svg">
<circle cx="91" cy="91" r="89.24" fill="#060602" stroke="#5092CE" stroke-width="3.52"/>
<circle cx="91" cy="91" r="31.24" fill="#5092CE" stroke="#5092CE" stroke-width="3.52"/>
<path d="M144 91C144 84.0399 142.629 77.148 139.966 70.7178C137.302 64.2875 133.398 58.4448 128.477 53.5233C123.555 48.6018 117.712 44.6979 111.282 42.0344C104.852 39.3709 97.9601 38 91 38" stroke="white" stroke-width="3"/>
<path d="M155 91C155 82.5954 153.345 74.2731 150.128 66.5083C146.912 58.7434 142.198 51.6881 136.255 45.7452C130.312 39.8022 123.257 35.088 115.492 31.8717C107.727 28.6554 99.4046 27 91 27" stroke="white" stroke-width="3"/>
</svg>
