<svg width="192" height="67" viewBox="0 0 192 67" fill="none" xmlns="http://www.w3.org/2000/svg">
<path d="M59.804 28V39.144H62.1V45.752H59.132V42H47.764V28H50.788V39.144H56.78V28H59.804ZM75.8502 40.236C74.4315 41.6547 72.6862 42.364 70.6142 42.364C68.5422 42.364 66.7969 41.6547 65.3782 40.236C63.9409 38.7987 63.2222 37.0533 63.2222 35C63.2222 32.9467 63.9409 31.2013 65.3782 29.764C66.7969 28.3453 68.5422 27.636 70.6142 27.636C72.6862 27.636 74.4315 28.3453 75.8502 29.764C77.2875 31.2013 78.0062 32.9467 78.0062 35C78.0062 37.0533 77.2875 38.7987 75.8502 40.236ZM66.2462 35C66.2462 36.2693 66.6662 37.324 67.5062 38.164C68.3462 39.004 69.3822 39.424 70.6142 39.424C71.8462 39.424 72.8822 39.004 73.7222 38.164C74.5622 37.324 74.9822 36.2693 74.9822 35C74.9822 33.7307 74.5622 32.676 73.7222 31.836C72.8822 30.996 71.8462 30.576 70.6142 30.576C69.3822 30.576 68.3462 30.996 67.5062 31.836C66.6662 32.676 66.2462 33.7307 66.2462 35ZM90.8766 26.04H83.0366V23.408H90.8766V26.04ZM83.7086 36.876L90.8766 28H93.2006V42H90.2326V33.096L83.0646 42H80.7406V28H83.7086V36.876ZM109.281 34.86L114.741 42H111.297L106.537 35.532V42H103.569V35.588L98.8093 42H95.3653L100.825 34.86L95.6453 28H99.0893L103.569 34.132V28H106.537V34.16L111.017 28H114.461L109.281 34.86ZM119.884 36.876L127.052 28H129.376V42H126.408V33.096L119.24 42H116.916V28H119.884V36.876ZM142.573 34.804C143.954 35.4573 144.645 36.5307 144.645 38.024C144.645 39.2187 144.234 40.18 143.413 40.908C142.61 41.636 141.49 42 140.053 42H132.885V28H139.493C140.912 28 142.022 28.3547 142.825 29.064C143.628 29.7733 144.029 30.7067 144.029 31.864C144.029 33.1893 143.544 34.1693 142.573 34.804ZM139.269 30.576H135.769V33.684H139.269C140.501 33.684 141.117 33.1613 141.117 32.116C141.117 31.0893 140.501 30.576 139.269 30.576ZM135.769 39.368H139.773C141.042 39.368 141.677 38.8173 141.677 37.716C141.677 37.2307 141.509 36.8573 141.173 36.596C140.837 36.316 140.37 36.176 139.773 36.176H135.769V39.368Z" fill="#5092CE"/>
</svg>
